<?xml version="1.0" encoding="UTF-8" standalone="no"?><!-- Generator: Gravit.io --><svg xmlns="http://www.w3.org/2000/svg" xmlns:xlink="http://www.w3.org/1999/xlink" style="isolation:isolate" viewBox="0 0 723.9 588.169" width="723.9pt" height="588.169pt"><defs><clipPath id="_clipPath_LxpyWGKIPSZnNIxJrJs0onaJ9mKweG7L"><rect width="723.9" height="588.169"/></clipPath></defs><g clip-path="url(#_clipPath_LxpyWGKIPSZnNIxJrJs0onaJ9mKweG7L)"><g><path d=" M 101.131 0 C 92.082 0 83.554 3.54 77.152 9.988 C 70.738 16.336 67.151 24.999 67.198 34.023 L 67.866 367.922 C 67.866 369.642 67.413 371.406 66.621 373.001 L 5.972 494.367 C 2.068 502.22 0.025 510.866 0 519.636 L 0 554.236 C 0 572.922 15.247 588.169 33.933 588.169 L 689.967 588.169 C 708.653 588.169 723.9 572.922 723.9 554.236 L 723.9 519.636 C 723.879 510.867 721.839 502.221 717.939 494.367 L 657.222 372.956 C 656.43 371.393 656.022 369.663 656.035 367.911 L 656.035 33.933 C 656.035 15.247 640.787 0 622.102 0 L 101.131 0 Z  M 101.131 22.622 L 622.102 22.622 C 628.323 22.622 633.413 27.712 633.413 33.933 L 633.413 367.911 C 633.413 373.171 634.657 378.43 636.987 383.113 L 694.299 497.681 L 29.601 497.681 L 86.155 384.572 L 508.992 384.572 C 515.27 384.572 520.303 379.539 520.303 373.261 C 520.303 366.983 515.27 361.95 508.992 361.95 L 90.488 361.95 L 89.82 33.933 C 89.82 30.946 91.013 28.084 93.134 25.981 C 95.243 23.837 98.123 22.627 101.131 22.622 Z  M 135.731 45.244 C 123.267 45.244 113.109 55.401 113.109 67.866 L 113.109 316.706 C 113.109 329.171 123.267 339.328 135.731 339.328 L 588.169 339.328 C 600.634 339.328 610.791 329.171 610.791 316.706 L 610.791 67.866 C 610.791 55.401 600.634 45.244 588.169 45.244 L 135.731 45.244 Z  M 135.731 67.866 L 588.169 67.866 L 588.169 316.706 L 135.731 316.706 L 135.731 67.866 Z  M 554.236 361.95 C 547.959 361.95 542.925 366.983 542.925 373.261 C 542.925 379.539 547.959 384.572 554.236 384.572 L 599.48 384.572 C 605.757 384.572 610.791 379.539 610.791 373.261 C 610.791 366.983 605.757 361.95 599.48 361.95 L 554.236 361.95 Z  M 113.109 407.194 C 106.832 407.194 101.798 412.227 101.798 418.505 C 101.798 424.782 106.832 429.816 113.109 429.816 L 135.731 429.816 C 142.009 429.816 147.042 424.782 147.042 418.505 C 147.042 412.227 142.009 407.194 135.731 407.194 L 113.109 407.194 Z  M 180.975 407.194 C 174.697 407.194 169.664 412.227 169.664 418.505 C 169.664 424.782 174.697 429.816 180.975 429.816 L 203.597 429.816 C 209.874 429.816 214.908 424.782 214.908 418.505 C 214.908 412.227 209.874 407.194 203.597 407.194 L 180.975 407.194 Z  M 248.841 407.194 C 242.563 407.194 237.53 412.227 237.53 418.505 C 237.53 424.782 242.563 429.816 248.841 429.816 L 271.463 429.816 C 277.74 429.816 282.774 424.782 282.774 418.505 C 282.774 412.227 277.74 407.194 271.463 407.194 L 248.841 407.194 Z  M 316.706 407.194 C 310.429 407.194 305.395 412.227 305.395 418.505 C 305.395 424.782 310.429 429.816 316.706 429.816 L 339.328 429.816 C 345.606 429.816 350.639 424.782 350.639 418.505 C 350.639 412.227 345.606 407.194 339.328 407.194 L 316.706 407.194 Z  M 384.572 407.194 C 378.294 407.194 373.261 412.227 373.261 418.505 C 373.261 424.782 378.294 429.816 384.572 429.816 L 407.194 429.816 C 413.471 429.816 418.505 424.782 418.505 418.505 C 418.505 412.227 413.471 407.194 407.194 407.194 L 384.572 407.194 Z  M 452.438 407.194 C 446.16 407.194 441.127 412.227 441.127 418.505 C 441.127 424.782 446.16 429.816 452.438 429.816 L 475.059 429.816 C 481.337 429.816 486.37 424.782 486.37 418.505 C 486.37 412.227 481.337 407.194 475.059 407.194 L 452.438 407.194 Z  M 520.303 407.194 C 514.026 407.194 508.992 412.227 508.992 418.505 C 508.992 424.782 514.026 429.816 520.303 429.816 L 542.925 429.816 C 549.203 429.816 554.236 424.782 554.236 418.505 C 554.236 412.227 549.203 407.194 542.925 407.194 L 520.303 407.194 Z  M 588.169 407.194 C 581.891 407.194 576.858 412.227 576.858 418.505 C 576.858 424.782 581.891 429.816 588.169 429.816 L 610.791 429.816 C 617.068 429.816 622.102 424.782 622.102 418.505 C 622.102 412.227 617.068 407.194 610.791 407.194 L 588.169 407.194 Z  M 147.042 452.438 C 140.765 452.438 135.731 457.471 135.731 463.749 C 135.731 470.026 140.765 475.059 147.042 475.059 L 169.664 475.059 C 175.942 475.059 180.975 470.026 180.975 463.749 C 180.975 457.471 175.942 452.438 169.664 452.438 L 147.042 452.438 Z  M 214.908 452.438 C 208.63 452.438 203.597 457.471 203.597 463.749 C 203.597 470.026 208.63 475.059 214.908 475.059 L 237.53 475.059 C 243.807 475.059 248.841 470.026 248.841 463.749 C 248.841 457.471 243.807 452.438 237.53 452.438 L 214.908 452.438 Z  M 282.774 452.438 C 276.496 452.438 271.463 457.471 271.463 463.749 C 271.463 470.026 276.496 475.059 282.774 475.059 L 441.127 475.059 C 447.404 475.059 452.438 470.026 452.438 463.749 C 452.438 457.471 447.404 452.438 441.127 452.438 L 282.774 452.438 Z  M 486.37 452.438 C 480.093 452.438 475.059 457.471 475.059 463.749 C 475.059 470.026 480.093 475.059 486.37 475.059 L 508.992 475.059 C 515.27 475.059 520.303 470.026 520.303 463.749 C 520.303 457.471 515.27 452.438 508.992 452.438 L 486.37 452.438 Z  M 554.236 452.438 C 547.959 452.438 542.925 457.471 542.925 463.749 C 542.925 470.026 547.959 475.059 554.236 475.059 L 576.858 475.059 C 583.136 475.059 588.169 470.026 588.169 463.749 C 588.169 457.471 583.136 452.438 576.858 452.438 L 554.236 452.438 Z  M 22.622 520.303 L 701.278 520.303 L 701.278 554.236 C 701.278 560.457 696.188 565.547 689.967 565.547 L 33.933 565.547 C 27.712 565.547 22.622 560.457 22.622 554.236 L 22.622 520.303 Z " fill="rgb(51,255,0)"/><g><path d=" M 290.664 87.346 C 289.594 88.535 286.858 93.769 284.479 98.884 C 282.219 104.118 279.483 109.947 278.412 111.85 C 276.271 115.894 273.178 130.763 270.086 151.223 C 267.112 171.207 267.112 214.506 270.086 234.49 C 273.178 254.95 276.271 269.819 278.412 273.863 C 279.483 275.766 282.219 281.595 284.479 286.829 C 291.378 302.174 282.219 300.508 361.798 300.508 C 441.377 300.508 432.218 302.174 439.117 286.829 C 441.377 281.595 444.113 275.766 445.184 273.863 C 449.347 265.774 454.938 229.732 455.889 203.562 C 457.079 173.11 451.25 123.507 445.184 111.85 C 444.113 109.947 441.377 104.118 439.117 98.884 C 432.218 83.539 441.377 85.204 361.798 85.204 C 296.731 85.204 292.449 85.323 290.664 87.346 Z  M 304.106 93.769 C 304.106 94.007 302.798 98.17 301.37 103.047 C 298.634 111.612 298.396 111.969 294.59 112.326 C 292.449 112.564 290.308 112.326 289.713 111.731 C 289.118 111.136 290.427 106.973 292.806 102.096 C 296.493 94.245 297.207 93.531 300.537 93.531 C 302.441 93.531 304.106 93.65 304.106 93.769 Z  M 332.06 98.646 C 331.584 101.382 330.87 105.545 330.395 107.805 L 329.562 111.969 L 320.284 112.326 C 315.05 112.564 310.173 112.445 309.34 112.088 C 308.15 111.612 308.507 109.471 310.767 102.572 L 313.86 93.531 L 323.376 93.531 L 332.774 93.531 L 332.06 98.646 Z  M 383.328 102.69 C 384.042 107.449 384.28 111.612 384.042 111.969 C 383.209 112.801 340.387 112.801 339.554 111.969 C 338.959 111.374 340.624 98.051 341.576 94.959 C 342.052 93.769 346.691 93.531 362.036 93.769 L 382.02 94.126 L 383.328 102.69 Z  M 412.829 102.572 C 415.089 109.471 415.445 111.612 414.256 112.088 C 413.423 112.445 408.546 112.564 403.431 112.326 L 394.034 111.969 L 393.201 107.805 C 392.726 105.545 392.131 101.382 391.655 98.527 L 390.941 93.531 L 400.339 93.531 L 409.736 93.531 L 412.829 102.572 Z  M 430.79 102.096 C 433.169 106.973 434.478 111.136 433.883 111.731 C 433.288 112.326 431.147 112.564 429.006 112.326 C 425.2 111.969 424.962 111.612 422.226 103.047 C 420.798 98.17 419.49 94.007 419.49 93.769 C 419.49 93.65 421.155 93.531 423.058 93.531 C 426.389 93.531 427.103 94.245 430.79 102.096 Z  M 440.544 127.433 L 441.734 133.975 L 361.798 133.975 L 281.862 133.975 L 283.051 127.433 L 284.241 120.89 L 361.798 120.89 L 439.355 120.89 L 440.544 127.433 Z  M 291.854 150.866 C 290.308 160.501 290.308 223.665 291.854 234.133 L 292.925 242.222 L 286.739 242.222 C 280.91 242.222 280.435 241.984 279.84 238.891 C 275.676 219.145 275.676 167.044 279.84 146.703 C 280.435 143.729 280.91 143.491 286.739 143.491 L 293.043 143.491 L 291.854 150.866 Z  M 326.231 192.856 L 326.231 242.222 L 314.098 242.222 L 301.846 242.222 L 300.894 235.322 C 300.419 231.635 299.943 212.484 299.943 192.856 C 299.943 173.229 300.419 154.078 300.894 150.271 L 301.846 143.491 L 314.098 143.491 L 326.231 143.491 L 326.231 192.856 Z  M 387.967 153.84 C 388.324 159.669 388.8 165.14 388.919 166.092 C 389.157 167.282 390.465 167.876 392.726 167.876 L 396.294 167.876 L 396.651 155.624 L 397.008 143.491 L 409.379 143.491 L 421.75 143.491 L 422.702 150.271 C 423.891 159.193 423.891 226.52 422.702 235.322 L 421.75 242.222 L 409.141 242.222 L 396.532 242.222 L 397.246 221.286 C 398.078 199.637 397.484 195.83 393.558 195.83 C 389.276 195.83 388.562 198.209 388.562 213.197 C 388.562 221.048 388.205 230.921 387.849 234.966 L 387.016 242.222 L 361.798 242.222 L 336.58 242.222 L 335.747 234.966 C 334.796 225.449 334.796 160.263 335.747 150.747 L 336.58 143.491 L 361.917 143.491 L 387.135 143.491 L 387.967 153.84 Z  M 443.756 146.703 C 447.801 166.33 447.801 219.383 443.756 238.891 C 443.161 241.984 442.686 242.222 437.214 242.222 L 431.266 242.222 L 432.218 228.78 C 433.407 211.413 433.407 173.824 432.218 156.814 L 431.147 143.491 L 437.095 143.491 C 442.686 143.491 443.161 143.729 443.756 146.703 Z  M 440.544 258.28 L 439.355 264.823 L 361.798 264.823 L 284.241 264.823 L 283.051 258.28 L 281.862 251.738 L 361.798 251.738 L 441.734 251.738 L 440.544 258.28 Z  M 301.37 282.665 C 302.798 287.542 304.106 291.706 304.106 291.825 C 304.106 292.063 302.441 292.182 300.419 292.182 C 297.088 292.182 296.493 291.468 292.806 283.617 C 290.664 278.859 289.118 274.577 289.475 273.982 C 289.832 273.506 291.973 273.149 294.352 273.387 C 298.515 273.744 298.634 273.863 301.37 282.665 Z  M 330.395 277.907 C 330.87 280.167 331.465 284.331 331.941 287.067 L 332.655 292.182 L 323.257 292.182 L 313.86 292.182 L 310.886 283.379 C 309.221 278.502 308.269 274.22 308.626 273.744 C 308.983 273.387 313.86 273.268 319.451 273.387 L 329.562 273.744 L 330.395 277.907 Z  M 383.328 282.903 L 382.02 291.587 L 361.798 291.587 L 341.576 291.587 L 340.268 282.903 L 338.959 274.339 L 361.798 274.339 L 384.637 274.339 L 383.328 282.903 Z  M 412.71 283.26 L 409.736 292.182 L 400.22 292.182 L 390.703 292.182 L 391.417 288.256 C 391.774 286.234 392.369 282.19 392.845 279.335 L 393.677 274.339 L 404.74 274.339 L 415.802 274.339 L 412.71 283.26 Z  M 433.764 277.194 C 433.169 278.859 431.266 282.903 429.601 286.115 C 426.984 291.468 426.151 292.182 422.939 292.182 C 419.847 292.182 419.371 291.825 420.085 290.04 C 420.441 288.97 421.631 284.926 422.702 281.119 L 424.605 274.339 L 429.72 274.339 C 434.716 274.339 434.835 274.458 433.764 277.194 Z " fill="rgb(51,255,0)"/><path d=" M 389.752 179.772 C 387.611 182.27 389.395 186.314 392.607 186.314 C 396.532 186.314 398.554 183.578 396.889 180.485 C 395.461 177.63 391.893 177.274 389.752 179.772 Z " fill="rgb(51,255,0)"/></g></g></g></svg>